<?xml version="1.0" standalone="no"?><svg xmlns="http://www.w3.org/2000/svg" viewBox="0 0 1440 320"><path fill="#f3f4f5" fill-opacity="1" d="M0,128L7.7,112C15.5,96,31,64,46,74.7C61.9,85,77,139,93,176C108.4,213,124,235,139,234.7C154.8,235,170,213,186,181.3C201.3,149,217,107,232,112C247.7,117,263,171,279,181.3C294.2,192,310,160,325,160C340.6,160,356,192,372,208C387.1,224,403,224,418,208C433.5,192,449,160,465,144C480,128,495,128,511,154.7C526.5,181,542,235,557,245.3C572.9,256,588,224,604,186.7C619.4,149,635,107,650,74.7C665.8,43,681,21,697,26.7C712.3,32,728,64,743,101.3C758.7,139,774,181,790,202.7C805.2,224,821,224,836,186.7C851.6,149,867,75,883,64C898.1,53,914,107,929,117.3C944.5,128,960,96,975,90.7C991,85,1006,107,1022,122.7C1037.4,139,1053,149,1068,165.3C1083.9,181,1099,203,1115,208C1130.3,213,1146,203,1161,192C1176.8,181,1192,171,1208,154.7C1223.2,139,1239,117,1254,122.7C1269.7,128,1285,160,1301,165.3C1316.1,171,1332,149,1347,144C1362.6,139,1378,149,1394,154.7C1409,160,1425,160,1432,160L1440,160L1440,320L1432.3,320C1424.5,320,1409,320,1394,320C1378.1,320,1363,320,1347,320C1331.6,320,1316,320,1301,320C1285.2,320,1270,320,1254,320C1238.7,320,1223,320,1208,320C1192.3,320,1177,320,1161,320C1145.8,320,1130,320,1115,320C1099.4,320,1084,320,1068,320C1052.9,320,1037,320,1022,320C1006.5,320,991,320,975,320C960,320,945,320,929,320C913.5,320,898,320,883,320C867.1,320,852,320,836,320C820.6,320,805,320,790,320C774.2,320,759,320,743,320C727.7,320,712,320,697,320C681.3,320,666,320,650,320C634.8,320,619,320,604,320C588.4,320,573,320,557,320C541.9,320,526,320,511,320C495.5,320,480,320,465,320C449,320,434,320,418,320C402.6,320,387,320,372,320C356.1,320,341,320,325,320C309.7,320,294,320,279,320C263.2,320,248,320,232,320C216.8,320,201,320,186,320C170.3,320,155,320,139,320C123.9,320,108,320,93,320C77.4,320,62,320,46,320C31,320,15,320,8,320L0,320Z"></path></svg>